# xmcd
#
# Track frame offsets: 
#        150
#        17508
#        36687
#        54172
#        70873
#        83409
#        101907
#        116816
#        134854
#        151342
#        167629
#        186515
#        203734
#        218135
#
# Disc length: 3176 seconds
#
# Revision: 0
# Processed by: cddbd v1.5.2PL0 Copyright (c) Steve Scherf et al.
# Submitted via: ExactAudioCopy v0.99pb3
#
DISCID=c90c660e
DTITLE=Corey Harris - Blu.Black
DYEAR=2009
DGENRE=Blues
TTITLE0=Black
TTITLE1=My Song
TTITLE2=Find A Way
TTITLE3=Conquering Lion
TTITLE4=Babylon Walls
TTITLE5=King And Queen
TTITLE6=So Good To Me
TTITLE7=Columbus
TTITLE8=Pimps And Thieves
TTITLE9=Blessed Seed
TTITLE10=Run Around Girl
TTITLE11=Backlash
TTITLE12=Everytime I look At You
TTITLE13=Blues
EXTD=
EXTT0=
EXTT1=
EXTT2=
EXTT3=
EXTT4=
EXTT5=
EXTT6=
EXTT7=
EXTT8=
EXTT9=
EXTT10=
EXTT11=
EXTT12=
EXTT13=
PLAYORDER=
